<svg xmlns="http://www.w3.org/2000/svg" xmlns:xlink="http://www.w3.org/1999/xlink" width="556" height="581" viewBox="0 0 556 581"><defs><filter id="a" x="0" y="0" width="556" height="581" filterUnits="userSpaceOnUse"><feOffset dx="10" dy="40" input="SourceAlpha"/><feGaussianBlur stdDeviation="5" result="b"/><feFlood flood-color="#02515c" flood-opacity="0.161"/><feComposite operator="in" in2="b"/><feComposite in="SourceGraphic"/></filter></defs><g transform="translate(5)"><g transform="matrix(1, 0, 0, 1, -5, 0)" filter="url(#a)"><circle cx="263" cy="263" r="263" transform="translate(5)" fill="#fff"/></g><rect width="57" height="239" rx="28.5" transform="matrix(0.839, 0.545, -0.545, 0.839, 159.682, 181.757)"/><rect width="57" height="239" rx="28.5" transform="matrix(0.839, 0.545, -0.545, 0.839, 442.655, 99)"/><rect width="57" height="146.812" rx="28.5" transform="matrix(0.839, 0.545, -0.545, 0.839, 215.682, 212)"/><rect width="57" height="146.812" rx="28.5" transform="matrix(0.839, 0.545, -0.545, 0.839, 309.446, 187.914)"/><circle cx="56.5" cy="56.5" r="56.5" transform="translate(5 215)" fill="#fff"/><circle cx="56.5" cy="56.5" r="56.5" transform="translate(401 188)" fill="#fff"/><text transform="translate(160 442)" font-size="78" font-family="Geneva"><tspan x="0" y="0">njong</tspan></text></g></svg>